<svg xmlns="http://www.w3.org/2000/svg" width="112.004" height="126.206" viewBox="0 0 112.004 126.206">
  <g id="Group_1141" data-name="Group 1141" transform="translate(-74 -189.1)">
    <g id="编组" transform="translate(74 189.1)">
      <g id="Group_1136" data-name="Group 1136" transform="translate(15.009)">
        <path id="Fill-77" d="M169.906,199.348c-8.312-6.859-19.689-10.248-34.215-10.248H99.54v5.084h35.506c12.346,0,23.482,2.5,30.341,8.473a33.481,33.481,0,0,1,11.943,25.5c0,10.49-4.519,18.156-11.539,24.047s-19.77,8.473-32.439,8.473H92.6v5.084h41.074q22.877,0,35.828-9.925c8.554-6.617,12.911-15.978,12.911-28,0-12.266-4.2-21.707-12.508-28.485" transform="translate(-92.6 -189.1)" fill="#fff"/>
      </g>
      <g id="Group_1137" data-name="Group 1137" transform="translate(33.488 10.41)">
        <path id="Fill-79" d="M171.26,209.1c-5.164-3.954-11.055-7.1-27.84-7.1H115.5v4.922s12.508-.161,27.275,0c14.283.161,19.528,1.775,24.37,5.326,6.133,4.519,10.006,10.168,10.006,17.995,0,7.585-3.873,12.911-10.087,17.511-6.294,4.68-15.978,4.68-19.932,4.842H126.394v4.922s9.522.161,15.493,0c13.557-.323,21.626-1.13,29.131-6.7,7.02-5.245,10.732-12.1,10.732-20.819,0-11.459-5.81-17.188-10.49-20.9" transform="translate(-115.5 -202)" fill="#fff"/>
      </g>
      <g id="Group_1138" data-name="Group 1138" transform="translate(0 20.012)">
        <path id="Fill-80" d="M160.747,217.935c-3.873-2.421-7.263-4.035-23.321-4.035H117.333v3.228h19.528c14.2,0,19.528,2.5,21.223,3.551,3.228,1.937,7.424,5.164,7.424,11.62,0,4.115-2.421,9.361-6.052,11.378-3.308,1.856-9.361,3.551-19.932,3.551H74v3.228h65.685c12.83,0,17.188-1.452,21.707-3.954s7.585-7.666,7.585-14.2c0-7.424-4.115-11.781-8.231-14.364" transform="translate(-74 -213.9)" fill="#fff"/>
      </g>
    </g>
    <path id="Fill-81" d="M178.805,260.748c-8.312-6.859-19.689-10.248-34.215-10.248H120.383v5.084h23.482c12.346,0,23.482,2.582,30.341,8.473a33.416,33.416,0,0,1,12.024,25.5c0,10.49-4.438,18.156-11.539,24.047s-19.77,8.473-32.439,8.473H101.5v5.084h41.074q22.877,0,35.828-9.925c8.634-6.617,12.911-15.978,12.911-28-.081-12.185-4.2-21.626-12.508-28.485" transform="translate(-5.309 -11.853)" fill="#fff"/>
    <path id="Fill-82" d="M177.766,270.5c-5.164-3.873-11.055-7.1-27.84-7.1H112v4.922s22.514-.161,37.281,0c14.283.161,19.528,1.775,24.37,5.326,6.133,4.519,10.006,10.168,10.006,17.995,0,7.585-3.873,12.911-10.087,17.511-6.294,4.68-15.978,4.68-19.932,4.842H132.9v4.922s9.6.161,15.493,0c13.557-.323,21.626-1.13,29.131-6.7,7.02-5.245,10.732-12.1,10.732-20.819,0-11.378-5.729-17.188-10.49-20.9" transform="translate(-7.336 -14.344)" fill="#fff"/>
    <path id="Fill-83" d="M122,292.344h35.586V289.6H122Z" transform="translate(-9.267 -19.402)" fill="#fff"/>
    <path id="Fill-84" d="M140.2,304.34h20.658V302H140.2Z" transform="translate(-12.78 -21.796)" fill="#fff"/>
    <path id="Fill-85" d="M101.5,292.344h10.49V289.6H101.5Z" transform="translate(-5.309 -19.402)" fill="#fff"/>
    <path id="Fill-86" d="M93.3,304.444h32.036V301.7H93.3Z" transform="translate(-3.726 -21.738)" fill="#fff"/>
    <path id="Fill-87" d="M103.1,217.059h12.508V214.8H103.1Z" transform="translate(-5.618 -4.961)" fill="#fff"/>
    <path id="Fill-88" d="M92.4,239.782h28.485V237.2H92.4Z" transform="translate(-3.552 -9.286)" fill="#fff"/>
    <path id="Fill-89" d="M93.3,331.028h30.1V327.8H93.3Z" transform="translate(-3.726 -26.776)" fill="#fff"/>
    <path id="Fill-90" d="M84.1,343.961h7.5V339.2H84.1Z" transform="translate(-1.95 -28.977)" fill="#fff"/>
    <path id="Fill-91" d="M107.3,229.782h47.287V227.2H107.3Z" transform="translate(-6.429 -7.355)" fill="#fff"/>
    <path id="Fill-92" d="M136.6,239.782h22.756V237.2H136.6Z" transform="translate(-12.085 -9.286)" fill="#fff"/>
    <path id="Fill-93" d="M169.647,279.954c-3.873-2.34-7.263-3.954-23.321-3.954h-25.5v3.147h25.015c14.2,0,19.609,2.421,21.223,3.389,3.147,1.856,7.424,4.922,7.424,11.217,0,4.035-2.421,9.038-6.052,10.974-3.308,1.775-9.361,3.389-19.932,3.389H82.9v3.147h65.685c12.83,0,17.188-1.372,21.707-3.793s7.5-7.343,7.5-13.718c.081-7.02-4.035-11.217-8.15-13.8" transform="translate(-1.718 -16.776)" fill="#fff"/>
  </g>
</svg>
