<svg id="top_up" data-name="top up" xmlns="http://www.w3.org/2000/svg" width="106.991" height="168.934" viewBox="0 0 106.991 168.934">
  <path id="Path_1141" data-name="Path 1141" d="M111.544,2h-90.1A8.456,8.456,0,0,0,13,10.447v152.04a8.456,8.456,0,0,0,8.447,8.447h90.1a8.456,8.456,0,0,0,8.447-8.447V10.447A8.456,8.456,0,0,0,111.544,2ZM18.631,18.893H114.36V148.409H18.631ZM21.447,7.631h90.1a2.817,2.817,0,0,1,2.816,2.816v2.816H18.631V10.447A2.817,2.817,0,0,1,21.447,7.631Zm90.1,157.671h-90.1a2.817,2.817,0,0,1-2.816-2.816V154.04H114.36v8.447A2.817,2.817,0,0,1,111.544,165.3Zm-36.6-5.631a2.814,2.814,0,0,1-2.816,2.816H60.864a2.816,2.816,0,0,1,0-5.631H72.127a2.814,2.814,0,0,1,2.816,2.816ZM103.1,83.651h-73.2a5.638,5.638,0,0,0-5.631,5.631v45.049a5.638,5.638,0,0,0,5.631,5.631h73.2a5.638,5.638,0,0,0,5.631-5.631V89.282A5.638,5.638,0,0,0,103.1,83.651Zm-13.824,50.68H43.717a16.909,16.909,0,0,0-13.824-13.824v-17.4A16.909,16.909,0,0,0,43.717,89.282H89.274A16.909,16.909,0,0,0,103.1,103.106l0,17.4a16.909,16.909,0,0,0-13.827,13.824Zm13.824-37a11.243,11.243,0,0,1-8.048-8.047H103.1ZM37.94,89.282a11.243,11.243,0,0,1-8.047,8.047V89.282Zm-8.047,37a11.243,11.243,0,0,1,8.047,8.047H29.893Zm65.158,8.047a11.243,11.243,0,0,1,8.051-8.048v8.048ZM66.5,94.913a16.893,16.893,0,1,0,16.893,16.893A16.893,16.893,0,0,0,66.5,94.913Zm0,28.156a11.262,11.262,0,1,1,11.262-11.262A11.262,11.262,0,0,1,66.5,123.069ZM46.787,55.5H58.049V75.2a2.814,2.814,0,0,0,2.816,2.816H72.127A2.814,2.814,0,0,0,74.942,75.2V55.5H86.2a2.817,2.817,0,0,0,2.12-4.669L68.615,28.3a2.9,2.9,0,0,0-4.24,0L44.667,50.827a2.817,2.817,0,0,0,2.12,4.669ZM66.5,34.431,80,49.864H72.127a2.814,2.814,0,0,0-2.816,2.816V72.389H63.68V52.68a2.814,2.814,0,0,0-2.816-2.816H52.992Z" transform="translate(-13 -2)" fill="#05b4ef"/>
</svg>
